<svg width="117" height="26" viewBox="0 0 117 26" fill="none" xmlns="http://www.w3.org/2000/svg">
<path d="M8.43281 19.86C8.43281 18.252 7.78481 17.292 7.08881 16.716C6.40481 16.128 5.33681 15.72 3.89681 15.72H1.08881V24H3.89681C5.33681 24 6.40481 23.592 7.08881 23.016C7.78481 22.428 8.43281 21.468 8.43281 19.86ZM6.46481 19.86C6.46481 20.88 6.08081 21.432 5.73281 21.756C5.38481 22.092 4.80881 22.356 4.00481 22.356H3.02081V17.328H4.00481C4.80881 17.328 5.38481 17.592 5.73281 17.916C6.08081 18.252 6.46481 18.84 6.46481 19.86ZM19.0903 19.872C19.0903 17.196 17.1583 15.588 14.6983 15.588C12.2383 15.588 10.3063 17.196 10.3063 19.872C10.3063 22.548 12.2383 24.144 14.6983 24.144C17.1583 24.144 19.0903 22.548 19.0903 19.872ZM17.1223 19.824C17.1223 21.408 16.0783 22.416 14.6983 22.416C13.3183 22.416 12.2743 21.408 12.2743 19.824C12.2743 18.24 13.3183 17.244 14.6983 17.244C16.0783 17.244 17.1223 18.252 17.1223 19.824ZM27.6473 21.504C27.1913 21.972 26.4473 22.38 25.4153 22.38C24.0593 22.38 22.9313 21.456 22.9313 19.836C22.9313 18.216 24.0113 17.28 25.4153 17.28C26.5073 17.28 27.3953 17.94 27.5513 18.144L28.1513 16.536C27.9353 16.308 27.0113 15.6 25.3073 15.6C22.8953 15.6 20.9633 17.196 20.9633 19.872C20.9633 22.536 22.8713 24.144 25.3073 24.144C26.9993 24.144 27.8753 23.448 28.2953 23.016L27.6473 21.504ZM37.264 15.72H35.308V20.544C35.308 21.132 35.26 21.588 34.984 21.924C34.72 22.236 34.336 22.44 33.796 22.44C33.256 22.44 32.872 22.236 32.608 21.924C32.332 21.588 32.284 21.132 32.284 20.544V15.72H30.328V20.544C30.328 21.708 30.532 22.512 31.108 23.148C31.696 23.772 32.584 24.132 33.796 24.132C34.996 24.132 35.896 23.772 36.472 23.148C37.06 22.512 37.264 21.708 37.264 20.544V15.72ZM48.5961 15.72H46.1361L44.4321 21.168H44.4081L42.6801 15.72H40.2321L39.6081 24H41.5161L41.8161 18.36H41.8521L43.6401 24H45.1761L46.9521 18.36H46.9761L47.3001 24H49.2081L48.5961 15.72ZM57.0803 22.428H53.5403V20.508H56.7803V18.96H53.5403V17.268H56.9723V15.72H51.6083V24H57.0803V22.428ZM66.9643 15.72H65.0683V19.476C65.0683 20.352 65.1043 21.288 65.1043 21.288L61.5523 15.72H59.4763V24H61.3723V20.256C61.3723 19.38 61.3363 18.384 61.3363 18.384L64.9723 24H66.9643V15.72ZM75.1843 15.72H68.9683V17.256H71.1043V24H73.0483V17.256H75.1843V15.72ZM80.4466 15.708H78.4306L75.3106 24H77.3266L77.9146 22.332H80.8666L81.4546 24H83.5666L80.4466 15.708ZM78.3586 20.82L79.3906 17.844L80.4226 20.82H78.3586ZM89.9007 15.72H83.6847V17.256H85.8207V24H87.7647V17.256H89.9007V15.72ZM93.8531 15.72H91.9091V24H93.8531V15.72ZM104.93 19.872C104.93 17.196 102.998 15.588 100.538 15.588C98.0782 15.588 96.1462 17.196 96.1462 19.872C96.1462 22.548 98.0782 24.144 100.538 24.144C102.998 24.144 104.93 22.548 104.93 19.872ZM102.962 19.824C102.962 21.408 101.918 22.416 100.538 22.416C99.1582 22.416 98.1142 21.408 98.1142 19.824C98.1142 18.24 99.1582 17.244 100.538 17.244C101.918 17.244 102.962 18.252 102.962 19.824ZM114.711 15.72H112.815V19.476C112.815 20.352 112.851 21.288 112.851 21.288L109.299 15.72H107.223V24H109.119V20.256C109.119 19.38 109.083 18.384 109.083 18.384L112.719 24H114.711V15.72Z" fill="#4965F6"/>
<path d="M3.688 1.72H1.756V9.856C1.756 10.456 1.624 10.816 1.156 10.816C0.892 10.816 0.664 10.768 0.508 10.708L0.436 12.136C0.544 12.196 1.096 12.316 1.672 12.316C2.344 12.316 2.86 12.064 3.172 11.704C3.508 11.32 3.688 10.708 3.688 9.832V1.72ZM13.2773 1.72H11.3213V6.544C11.3213 7.132 11.2733 7.588 10.9973 7.924C10.7333 8.236 10.3493 8.44 9.80931 8.44C9.26931 8.44 8.88531 8.236 8.62131 7.924C8.34531 7.588 8.29731 7.132 8.29731 6.544V1.72H6.34131V6.544C6.34131 7.708 6.54531 8.512 7.12131 9.148C7.70931 9.772 8.59731 10.132 9.80931 10.132C11.0093 10.132 11.9093 9.772 12.4853 9.148C13.0733 8.512 13.2773 7.708 13.2773 6.544V1.72ZM24.6093 1.72H22.1493L20.4453 7.168H20.4213L18.6933 1.72H16.2453L15.6213 10H17.5293L17.8293 4.36H17.8653L19.6533 10H21.1893L22.9653 4.36H22.9893L23.3133 10H25.2213L24.6093 1.72ZM33.6096 4.324C33.6096 3.436 33.2976 2.8 32.7456 2.344C32.1936 1.888 31.4376 1.72 30.5856 1.72H27.6216V10H29.5656V6.94H30.5856C31.4376 6.94 32.1936 6.772 32.7456 6.316C33.2976 5.848 33.6096 5.212 33.6096 4.324ZM31.6416 4.324C31.6416 4.744 31.4736 5.044 31.2456 5.212C31.0056 5.38 30.7296 5.44 30.3096 5.44H29.5536V3.22H30.3096C30.7296 3.22 31.0056 3.28 31.2456 3.448C31.4736 3.616 31.6416 3.904 31.6416 4.324ZM41.3511 7.48C41.3511 6.736 41.0511 6.232 40.7031 5.884C40.3311 5.512 39.7791 5.296 39.5511 5.212C39.2871 5.104 38.6751 4.888 38.3151 4.744C37.9431 4.6 37.4751 4.408 37.4751 3.904C37.4751 3.4 37.9311 3.16 38.5551 3.16C39.1791 3.16 39.9231 3.52 40.4031 4L41.2311 2.644C40.6671 2.08 39.5631 1.624 38.6031 1.624C37.6431 1.624 36.8871 1.888 36.4191 2.284C35.9391 2.68 35.5551 3.304 35.5551 4.096C35.5551 4.876 35.8431 5.356 36.2031 5.692C36.5631 6.04 36.9831 6.196 37.1871 6.292C37.4631 6.412 38.0871 6.628 38.4471 6.76C38.8071 6.892 39.4191 7.108 39.4191 7.672C39.4191 8.224 38.9391 8.524 38.3151 8.524C37.6791 8.524 36.7551 8.104 36.1551 7.48L35.1951 8.896C35.8671 9.52 36.9351 10.144 38.1351 10.144C39.0231 10.144 39.7911 9.928 40.3791 9.46C40.9791 8.992 41.3511 8.272 41.3511 7.48ZM48.971 1.72H42.755V3.256H44.891V10H46.835V3.256H48.971V1.72ZM54.2333 1.708H52.2173L49.0973 10H51.1133L51.7013 8.332H54.6533L55.2413 10H57.3533L54.2333 1.708ZM52.1453 6.82L53.1773 3.844L54.2093 6.82H52.1453ZM63.7096 6.58C64.3216 6.388 65.3296 5.776 65.3296 4.204C65.3296 3.376 64.9696 2.716 64.4176 2.308C63.8776 1.912 63.1576 1.72 62.2336 1.72H59.2576V10H61.2016V6.832H61.8136L63.5536 10H65.8096L63.7096 6.58ZM63.3736 4.276C63.3736 4.708 63.2056 4.936 62.9536 5.116C62.7136 5.296 62.4016 5.344 61.9576 5.344H61.1896V3.22H61.9576C62.4016 3.22 62.7136 3.256 62.9536 3.436C63.2056 3.616 63.3736 3.856 63.3736 4.276ZM73.1609 1.72H66.9449V3.256H69.0809V10H71.0249V3.256H73.1609V1.72Z" fill="#57586E"/>
</svg>
